<svg width="30" height="30" viewBox="0 0 30 30" fill="none" xmlns="http://www.w3.org/2000/svg">
<g clip-path="url(#clip0_143_931)">
<path d="M25.3125 4.415C25.5351 4.35744 25.7692 4.36237 25.9891 4.42925C26.2091 4.49613 26.4063 4.62237 26.5591 4.79408C26.712 4.96579 26.8145 5.17632 26.8555 5.40253C26.8964 5.62874 26.8742 5.86185 26.7912 6.07625L19.2912 25.4512C19.2171 25.6431 19.0967 25.8138 18.9407 25.948C18.7848 26.0822 18.5981 26.1758 18.3973 26.2206C18.1965 26.2653 17.9877 26.2598 17.7896 26.2046C17.5914 26.1493 17.4099 26.046 17.2612 25.9037L13.0337 21.86L11.53 23.3625C10.735 24.1575 9.375 23.595 9.375 22.47V18.36L2.88625 12.1537C2.72525 11.9997 2.60835 11.8055 2.54765 11.5911C2.48695 11.3767 2.48465 11.15 2.541 10.9344C2.59734 10.7189 2.71028 10.5223 2.86812 10.365C3.02597 10.2078 3.22297 10.0955 3.43875 10.04L25.3137 4.415H25.3125ZM22.67 9.79625L12.6725 18.055L17.635 22.8025L22.67 9.79625V9.79625ZM20.6975 8.18375L6.23875 11.9L10.8537 16.3125L20.6975 8.18125V8.18375Z" fill="white"/>
</g>
<defs>
<clipPath id="clip0_143_931">
<rect width="30" height="30" fill="white"/>
</clipPath>
</defs>
</svg>
